<svg xmlns="http://www.w3.org/2000/svg"  viewBox="0 0 48 48" width="48px" height="48px"><linearGradient id="h2kxiVIJr8V9vJZ-JaxrPa" x1="24" x2="24" y1="4" y2="44" gradientUnits="userSpaceOnUse"><stop offset="0" stop-color="#33bbed"/><stop offset="1" stop-color="#0a82d6"/></linearGradient><path fill="url(#h2kxiVIJr8V9vJZ-JaxrPa)" d="M22.923,4.028 C12.828,4.558,4.558,12.828,4.028,22.923C3.424,34.458,12.597,44,24,44l0-3.121c0-1.03-0.786-1.864-1.809-1.987 c-7.659-0.921-13.542-7.613-13.174-15.6c0.351-7.639,6.637-13.924,14.275-14.275C31.898,8.62,39,15.481,39,24 c0,0-0.001,0.239-0.033,0.662c-0.065,1.492-0.345,2.926-0.815,4.274C36.792,33.561,33.25,40.3,24,44c11.046,0,20-8.954,20-20 C44,12.597,34.458,3.424,22.923,4.028z"/></svg>